<?xml version="1.0" encoding="UTF-8"?>
<svg width="600px" height="600px" viewBox="0 0 600 600" version="1.1" xmlns="http://www.w3.org/2000/svg" xmlns:xlink="http://www.w3.org/1999/xlink">
    <title>assets/icon</title>
    <g id="/assets/icon" stroke="none" stroke-width="1" fill="none" fill-rule="evenodd">
        <g id="g30" transform="translate(22, 15)" fill="#F27321" fill-rule="nonzero">
            <g id="g36" transform="translate(19.3975, 0)">
                <path d="M258.670678,0 C149.643364,0 50.3281495,62.4335521 3.31439169,161.49335 C-4.81499566,178.674259 2.5230354,199.197896 19.7170493,207.357031 C36.8750925,215.480222 57.4143854,208.147784 65.5797434,191.002819 C102.377811,113.365241 181.729264,65.4887346 267.591422,69.0111803 C347.302583,72.317966 417.985088,119.152116 452.08535,191.218479 C460.214737,208.43533 480.718059,215.767768 497.912073,207.644577 C515.106087,199.521386 522.480089,178.997749 514.350702,161.81684 C469.279364,66.531091 375.82738,4.60074535 270.43311,0.251603261 C266.5123,0.0718866461 262.591489,0 258.670678,0" id="path38"></path>
            </g>
            <g id="g40" transform="translate(0, 253.6988)">
                <path d="M521.575737,0 L34.4599694,0 C15.4314477,0 0,15.4196856 0,34.4337035 C0,53.4117781 15.4314477,68.8314636 34.4599694,68.8314636 L484.274079,68.8314636 C467.583655,170.011918 379.311458,247.469779 273.449569,247.469779 C193.702437,247.469779 121.149454,203.618925 84.0995912,132.954352 C75.2867598,116.132877 54.4597011,109.627135 37.6253945,118.469193 C20.7551172,127.275307 14.280384,148.086491 23.0932154,164.907966 C72.0853639,258.288719 168.019329,316.301243 273.449569,316.301243 C428.987051,316.301243 555.74794,189.888576 556,34.4696468 C556.035706,25.3400428 552.402661,16.5698719 545.963899,10.1000738 C539.489166,3.63027563 530.712305,0 521.575737,0" id="path42"></path>
            </g>
        </g>
    </g>
</svg>